<svg width="479" height="463" viewBox="0 0 479 463" fill="none" xmlns="http://www.w3.org/2000/svg">
<path fill-rule="evenodd" clip-rule="evenodd" d="M432 231C432 337.087 346.033 423 240.119 423C223.733 423 208.059 421.101 193.098 417.304C194.365 417.304 195.631 417.304 196.898 417.304C272.891 417.304 334.397 355.836 334.397 279.89C334.397 203.944 272.891 142.476 196.898 142.476C120.905 142.476 59.3989 203.944 59.3989 279.89C59.3989 286.852 59.8738 293.655 60.8237 300.3C52.5121 278.941 48 255.445 48 231C48 125.151 133.967 39 240.119 39C346.033 39 432 125.151 432 231ZM411.814 231C411.814 136.305 334.872 59.4103 240.119 59.4103C187.399 59.4103 140.378 83.1434 108.794 120.404C138.716 95.0099 177.425 79.8208 219.696 79.8208C314.449 79.8208 391.391 156.716 391.391 251.41C391.391 293.655 375.955 332.34 350.783 362.244C388.067 330.679 411.814 283.687 411.814 231Z" fill="url(#paint0_linear_322_1033)"/>
<path d="M66.3587 391.653V291.422H123.541C128.181 291.422 132.127 293.072 135.38 296.372C138.632 299.625 140.259 303.571 140.259 308.211V334.04C140.259 338.68 138.632 342.65 135.38 345.95C132.127 349.202 128.181 350.829 123.541 350.829H85.7305V391.653H66.3587ZM85.7305 333.035H115.864C117.252 333.035 118.423 332.557 119.38 331.6C120.385 330.596 120.887 329.4 120.887 328.013V314.381C120.887 312.994 120.385 311.798 119.38 310.794C118.423 309.741 117.252 309.215 115.864 309.215H85.7305V333.035Z" fill="white"/>
<path d="M154.178 391.653V291.422H173.765V391.653H154.178Z" fill="white"/>
<path d="M191.343 375.079V308.211C191.343 303.571 192.969 299.625 196.222 296.372C199.474 293.072 203.372 291.422 207.916 291.422H258.14C262.684 291.422 266.582 293.072 269.835 296.372C273.135 299.625 274.785 303.571 274.785 308.211V375.079C274.785 379.671 273.159 383.593 269.906 386.846C266.654 390.051 262.732 391.653 258.14 391.653H207.916C203.325 391.653 199.402 390.051 196.15 386.846C192.945 383.593 191.343 379.671 191.343 375.079ZM210.715 368.909C210.715 370.296 211.193 371.468 212.15 372.425C213.154 373.381 214.35 373.86 215.737 373.86H250.391C251.778 373.86 252.95 373.381 253.907 372.425C254.911 371.468 255.413 370.296 255.413 368.909V314.381C255.413 312.994 254.911 311.798 253.907 310.794C252.95 309.741 251.778 309.215 250.391 309.215H215.737C214.35 309.215 213.154 309.741 212.15 310.794C211.193 311.798 210.715 312.994 210.715 314.381V368.909Z" fill="white"/>
<path d="M269.942 386.881L269.941 386.882C266.679 390.096 262.745 391.703 258.14 391.703H207.916C203.312 391.703 199.377 390.096 196.115 386.882L196.114 386.881C192.9 383.619 191.293 379.684 191.293 375.079V308.211C191.293 303.558 192.924 299.599 196.186 296.337C196.186 296.337 196.186 296.337 196.186 296.337L196.222 296.372L269.942 386.881ZM269.942 386.881C273.204 383.619 274.835 379.685 274.835 375.079V308.211C274.835 303.558 273.18 299.599 269.87 296.337L269.942 386.881ZM193.098 417.254L193.086 417.353C208.051 421.151 223.729 423.05 240.119 423.05C346.061 423.05 432.05 337.114 432.05 231C432.05 125.123 346.061 38.95 240.119 38.95C133.939 38.95 47.95 125.123 47.95 231C47.95 255.451 52.4632 278.953 60.7772 300.318L60.8732 300.293C59.9237 293.65 59.4489 286.849 59.4489 279.89C59.4489 203.972 120.933 142.526 196.898 142.526C272.863 142.526 334.347 203.972 334.347 279.89C334.347 355.808 272.863 417.254 196.898 417.254H196.891H196.883H196.876H196.868H196.861H196.853H196.846H196.839H196.831H196.824H196.816H196.809H196.801H196.794H196.787H196.779H196.772H196.764H196.757H196.75H196.742H196.735H196.727H196.72H196.712H196.705H196.698H196.69H196.683H196.675H196.668H196.66H196.653H196.646H196.638H196.631H196.623H196.616H196.609H196.601H196.594H196.586H196.579H196.571H196.564H196.557H196.549H196.542H196.534H196.527H196.52H196.512H196.505H196.497H196.49H196.482H196.475H196.468H196.46H196.453H196.445H196.438H196.43H196.423H196.416H196.408H196.401H196.393H196.386H196.378H196.371H196.364H196.356H196.349H196.341H196.334H196.327H196.319H196.312H196.304H196.297H196.289H196.282H196.275H196.267H196.26H196.252H196.245H196.237H196.23H196.223H196.215H196.208H196.2H196.193H196.186H196.178H196.171H196.163H196.156H196.148H196.141H196.134H196.126H196.119H196.111H196.104H196.096H196.089H196.082H196.074H196.067H196.059H196.052H196.045H196.037H196.03H196.022H196.015H196.007H196H195.993H195.985H195.978H195.97H195.963H195.955H195.948H195.941H195.933H195.926H195.918H195.911H195.904H195.896H195.889H195.881H195.874H195.866H195.859H195.852H195.844H195.837H195.829H195.822H195.814H195.807H195.8H195.792H195.785H195.777H195.77H195.763H195.755H195.748H195.74H195.733H195.725H195.718H195.711H195.703H195.696H195.688H195.681H195.673H195.666H195.659H195.651H195.644H195.636H195.629H195.622H195.614H195.607H195.599H195.592H195.584H195.577H195.57H195.562H195.555H195.547H195.54H195.532H195.525H195.518H195.51H195.503H195.495H195.488H195.481H195.473H195.466H195.458H195.451H195.443H195.436H195.429H195.421H195.414H195.406H195.399H195.391H195.384H195.377H195.369H195.362H195.354H195.347H195.34H195.332H195.325H195.317H195.31H195.302H195.295H195.288H195.28H195.273H195.265H195.258H195.25H195.243H195.236H195.228H195.221H195.213H195.206H195.199H195.191H195.184H195.176H195.169H195.161H195.154H195.147H195.139H195.132H195.124H195.117H195.109H195.102H195.095H195.087H195.08H195.072H195.065H195.058H195.05H195.043H195.035H195.028H195.02H195.013H195.006H194.998H194.991H194.983H194.976H194.968H194.961H194.954H194.946H194.939H194.931H194.924H194.917H194.909H194.902H194.894H194.887H194.879H194.872H194.865H194.857H194.85H194.842H194.835H194.827H194.82H194.813H194.805H194.798H194.79H194.783H194.776H194.768H194.761H194.753H194.746H194.738H194.731H194.724H194.716H194.709H194.701H194.694H194.686H194.679H194.672H194.664H194.657H194.649H194.642H194.635H194.627H194.62H194.612H194.605H194.597H194.59H194.583H194.575H194.568H194.56H194.553H194.545H194.538H194.531H194.523H194.516H194.508H194.501H194.494H194.486H194.479H194.471H194.464H194.456H194.449H194.442H194.434H194.427H194.419H194.412H194.404H194.397H194.39H194.382H194.375H194.367H194.36H194.353H194.345H194.338H194.33H194.323H194.315H194.308H194.301H194.293H194.286H194.278H194.271H194.263H194.256H194.249H194.241H194.234H194.226H194.219H194.212H194.204H194.197H194.189H194.182H194.174H194.167H194.16H194.152H194.145H194.137H194.13H194.122H194.115H194.108H194.1H194.093H194.085H194.078H194.071H194.063H194.056H194.048H194.041H194.033H194.026H194.019H194.011H194.004H193.996H193.989H193.981H193.974H193.967H193.959H193.952H193.944H193.937H193.93H193.922H193.915H193.907H193.9H193.892H193.885H193.878H193.87H193.863H193.855H193.848H193.84H193.833H193.826H193.818H193.811H193.803H193.796H193.788H193.781H193.774H193.766H193.759H193.751H193.744H193.737H193.729H193.722H193.714H193.707H193.699H193.692H193.685H193.677H193.67H193.662H193.655H193.648H193.64H193.633H193.625H193.618H193.61H193.603H193.596H193.588H193.581H193.573H193.566H193.558H193.551H193.544H193.536H193.529H193.521H193.514H193.507H193.499H193.492H193.484H193.477H193.469H193.462H193.455H193.447H193.44H193.432H193.425H193.417H193.41H193.403H193.395H193.388H193.38H193.373H193.365H193.358H193.351H193.343H193.336H193.328H193.321H193.314H193.306H193.299H193.291H193.284H193.276H193.269H193.262H193.254H193.247H193.239H193.232H193.224H193.217H193.21H193.202H193.195H193.187H193.18H193.173H193.165H193.158H193.15H193.143H193.135H193.128H193.121H193.113H193.106H193.098ZM66.3087 391.653V391.703H66.3587H85.7305H85.7805V391.653V350.879H123.541C128.194 350.879 132.153 349.247 135.415 345.985L135.415 345.985C138.677 342.675 140.309 338.693 140.309 334.04V308.211C140.309 303.558 138.677 299.599 135.415 296.337C132.153 293.027 128.194 291.372 123.541 291.372H66.3587H66.3087V291.422V391.653ZM119.343 310.827L119.345 310.829C120.34 311.824 120.837 313.008 120.837 314.381V328.013C120.837 329.387 120.34 330.57 119.345 331.565C118.398 332.512 117.239 332.985 115.864 332.985H85.7805V309.265H115.864C117.237 309.265 118.396 309.785 119.343 310.827ZM154.128 391.653V391.703H154.178H173.765H173.815V391.653V291.422V291.372H173.765H154.178H154.128V291.422V391.653ZM253.87 310.827L253.871 310.829C254.867 311.824 255.363 313.008 255.363 314.381V368.909C255.363 370.283 254.867 371.441 253.872 372.389L253.871 372.389C252.924 373.336 251.765 373.81 250.391 373.81H215.737C214.363 373.81 213.179 373.336 212.184 372.389C211.238 371.442 210.765 370.283 210.765 368.909V314.381C210.765 313.007 211.238 311.823 212.186 310.828C213.181 309.785 214.364 309.265 215.737 309.265H250.391C251.764 309.265 252.922 309.785 253.87 310.827ZM240.119 59.4603C334.844 59.4603 411.764 136.333 411.764 231C411.764 283.459 388.215 330.27 351.202 361.822C376.156 331.973 391.441 293.454 391.441 251.41C391.441 156.688 314.477 79.7708 219.696 79.7708C177.631 79.7708 139.093 94.8077 109.226 119.973C140.798 82.9897 187.633 59.4603 240.119 59.4603Z" stroke="white" stroke-width="0.1"/>
<defs>
<linearGradient id="paint0_linear_322_1033" x1="47.9193" y1="424.937" x2="47.9193" y2="52.6726" gradientUnits="userSpaceOnUse">
<stop offset="0.146" stop-color="#A97100"/>
<stop offset="0.822" stop-color="#EDE46E"/>
<stop offset="1" stop-color="#DEC53F"/>
</linearGradient>
</defs>
</svg>
